# File created by Blade
# Date/Time:  Tue Sep 30 19:31:19 2014
#---------------------------------------------------------
:version 1.10
:name HOM
:units
  mass 1.0
  length 1.000000
  angle deg
:documentation
     Acclaim Skeleton File
:root
   axis xyz
   order TX TY TZ RX RY RZ
   position 0.000000 0.000000 0.000000
   orientation 0 0 0
:bonedata
   begin
      id 1
      name Spine_dum
      direction 0.000000 1.000000 0.000000
      length 3.241213
      axis 0.0 0.0 0.0 xyz
   end
   begin
      id 2
      name LeftUpLeg_dum
      direction 1.000000 0.000000 0.000000
      length 3.434019
      axis 0.0 0.0 0.0 xyz
   end
   begin
      id 3
      name RightUpLeg_dum
      direction -1.000000 0.000000 0.000000
      length 3.434019
      axis 0.0 0.0 0.0 xyz
   end
   begin
      id 4
      name Spine
      direction 0.000000 1.000000 0.000000
      length 0.000000
      axis 0.0 0.0 0.0 xyz
      dof rx ry rz
   end
   begin
      id 5
      name Spine_dum1
      direction 0.000000 1.000000 0.000000
      length 18.382958
      axis 0.0 0.0 0.0 xyz
   end
   begin
      id 6
      name Spine_dum2
      direction 0.000000 1.000000 0.000000
      length 12.828261
      axis 0.0 0.0 0.0 xyz
   end
   begin
      id 7
      name Spine_dum3
      direction 0.000000 1.000000 0.000000
      length 12.828261
      axis 0.0 0.0 0.0 xyz
   end
   begin
      id 8
      name Head
      direction 0.000000 1.000000 0.000000
      length 4.527550
      axis 0.0 0.0 0.0 xyz
      dof rx ry rz
   end
   begin
      id 9
      name LeftShoulder
      direction 1.000000 0.000000 0.000000
      length 7.748055
      axis 0.0 0.0 -90.0 xyz
      dof rx ry rz
   end
   begin
      id 10
      name LeftArm
      direction 1.000000 0.000000 0.000000
      length 10.635614
      axis 0.0 0.0 -90.0 xyz
      dof rx ry rz
   end
   begin
      id 11
      name LeftForeArm
      direction 1.000000 0.000000 0.000000
      length 8.346755
      axis 0.0 0.0 -90.0 xyz
      dof ry rz rx
   end
   begin
      id 12
      name LeftHand
      direction 0.000000 0.000000 0.000000
      length 0.000000
      axis 0.0 0.0 -90.0 xyz
      dof rx ry rz
   end
   begin
      id 13
      name LeftHand_dum1
      direction 0.000000 0.000000 0.000000
      length 0.000000
      axis 0.0 0.0 -90.0 xyz
   end
   begin
      id 14
      name LeftHand_dum2
      direction 1.000000 0.000000 0.000000
      length 3.937000
      axis 0.0 0.0 -90.0 xyz
   end
   begin
      id 15
      name LeftHandThumb1
      direction 0.000000 0.000000 1.000000
      length 3.937000
      axis 0.0 0.0 -90.0 xyz
      dof rx rz ry
   end
   begin
      id 16
      name RightShoulder
      direction -1.000000 0.000000 0.000000
      length 7.748055
      axis 0.0 0.0 90.0 xyz
      dof rx ry rz
   end
   begin
      id 17
      name RightArm
      direction -1.000000 0.000000 0.000000
      length 10.635614
      axis 0.0 0.0 90.0 xyz
      dof rx ry rz
   end
   begin
      id 18
      name RightForeArm
      direction -1.000000 0.000000 0.000000
      length 8.346755
      axis 0.0 0.0 90.0 xyz
      dof ry rz rx
   end
   begin
      id 19
      name RightHand
      direction 0.000000 0.000000 0.000000
      length 0.000000
      axis 0.0 0.0 90.0 xyz
      dof rx ry rz
   end
   begin
      id 20
      name RightHand_dum1
      direction 0.000000 0.000000 0.000000
      length 0.000000
      axis 0.0 0.0 90.0 xyz
   end
   begin
      id 21
      name RightHand_dum2
      direction -1.000000 0.000000 0.000000
      length 3.937000
      axis 0.0 0.0 90.0 xyz
   end
   begin
      id 22
      name RightHandThumb1
      direction 0.000000 0.000000 1.000000
      length 3.937000
      axis 0.0 0.0 90.0 xyz
      dof rx rz ry
   end
   begin
      id 23
      name LeftUpLeg
      direction 0.000000 -1.000000 0.000000
      length 15.713025
      axis 0.0 0.0 0.0 xyz
      dof rx ry rz
   end
   begin
      id 24
      name LeftLeg
      direction 0.000000 -1.000000 0.000000
      length 14.435119
      axis 0.0 0.0 0.0 xyz
      dof rx ry rz
   end
   begin
      id 25
      name LeftFoot
      direction 0.000000 -0.258819 0.965926
      length 4.938895
      axis 15.0 0.0 0.0 xyz
      dof rx ry rz
   end
   begin
      id 26
      name LeftToeBase
      direction 0.000000 0.000000 1.000000
      length 2.952750
      axis 0.0 0.0 0.0 xyz
      dof rx ry rz
   end
   begin
      id 27
      name RightUpLeg
      direction 0.000000 -1.000000 0.000000
      length 15.713025
      axis 0.0 0.0 0.0 xyz
      dof rx ry rz
   end
   begin
      id 28
      name RightLeg
      direction 0.000000 -1.000000 0.000000
      length 14.435119
      axis 0.0 0.0 0.0 xyz
      dof rx ry rz
   end
   begin
      id 29
      name RightFoot
      direction 0.000000 -0.258819 0.965926
      length 4.938895
      axis 15.0 0.0 0.0 xyz
      dof rx ry rz
   end
   begin
      id 30
      name RightToeBase
      direction 0.000000 0.000000 1.000000
      length 2.952750
      axis 0.0 0.0 0.0 xyz
      dof rx ry rz
   end
:hierarchy
   begin
      root Spine_dum LeftUpLeg_dum RightUpLeg_dum
      Spine_dum Spine
      LeftUpLeg_dum LeftUpLeg
      RightUpLeg_dum RightUpLeg
      Spine Spine_dum1 Spine_dum2 Spine_dum3
      Spine_dum1 Head
      Spine_dum2 LeftShoulder
      Spine_dum3 RightShoulder
      LeftShoulder LeftArm
      LeftArm LeftForeArm
      LeftForeArm LeftHand
      LeftHand LeftHand_dum1 LeftHand_dum2
      LeftHand_dum1 LeftHandThumb1
      RightShoulder RightArm
      RightArm RightForeArm
      RightForeArm RightHand
      RightHand RightHand_dum1 RightHand_dum2
      RightHand_dum1 RightHandThumb1
      LeftUpLeg LeftLeg
      LeftLeg LeftFoot
      LeftFoot LeftToeBase
      RightUpLeg RightLeg
      RightLeg RightFoot
      RightFoot RightToeBase
   end

# File created by Blade
# Date/Time:  Thu Sep 25 17:54:10 2014
# Frame Rate: 120.000 fps
#------------------------------------------------------
:FULLY-SPECIFIED
:DEGREES
1184
root 0.767911 32.644668 -5.520092 24.258978 1.852893 -0.139954
Spine -27.838488 -11.898710 7.640000
Head 29.024835 28.369106 17.383616
LeftShoulder -21.304355 24.161825 54.211786
LeftArm 207.392631 -31.242624 -120.169527
LeftForeArm -13.945162 -0.000000 125.023021
LeftHand -7.153155 -0.000000 -25.517154
LeftHandThumb1 -26.253704 0.000000 33.147579
RightShoulder -49.277222 -59.451930 -14.192436
RightArm 105.758853 40.952647 144.841583
RightForeArm 76.540563 -0.000000 132.363653
RightHand 10.761975 0.000000 3.289981
RightHandThumb1 -24.326973 -0.000000 -32.862282
LeftUpLeg -16.833792 3.922293 -0.891667
LeftLeg -1.700851 -0.000000 0.000000
LeftFoot -4.716924 -2.556222 -1.844925
LeftToeBase 3.544231 -0.000000 -0.000000
RightUpLeg -16.638286 -9.306138 2.997732
RightLeg -2.376170 -0.000000 0.000000
RightFoot -6.939590 -0.665691 12.659508
RightToeBase 15.554325 -0.000000 -0.000000
1185
root 0.764874 32.645019 -5.522102 24.252632 1.853169 -0.143037
Spine -27.834031 -11.897974 7.619594
Head 29.054486 28.373596 17.376880
LeftShoulder -21.294025 24.168705 54.205639
LeftArm 207.392144 -31.246507 -120.157673
LeftForeArm -14.056347 -0.000000 124.972925
LeftHand -7.332577 -0.000000 -25.612976
LeftHandThumb1 -26.253704 0.000000 33.147579
RightShoulder -49.251757 -59.458367 -14.211111
RightArm 105.781300 40.949522 144.840291
RightForeArm 76.512776 -0.000000 132.359990
RightHand 10.788996 -0.000000 3.266204
RightHandThumb1 -24.326973 -0.000000 -32.862282
LeftUpLeg -16.834010 3.936872 -0.887990
LeftLeg -1.694848 -0.000000 0.000000
LeftFoot -4.729899 -2.570423 -1.878583
LeftToeBase 3.580072 -0.000000 -0.000000
RightUpLeg -16.636320 -9.308372 3.007672
RightLeg -2.373675 -0.000000 0.000000
RightFoot -6.964737 -0.682135 12.550997
RightToeBase 15.636681 -0.000000 -0.000000
1186
root 0.762032 32.645267 -5.523382 24.239324 1.850104 -0.146128
Spine -27.822695 -11.883752 7.590032
Head 29.076766 28.354821 17.372287
LeftShoulder -21.293517 24.178881 54.198881
LeftArm 207.370636 -31.215963 -120.141698
LeftForeArm -14.181994 -0.000000 124.989642
LeftHand -7.357041 -0.000000 -26.026496
LeftHandThumb1 -26.253704 0.000000 33.147579
RightShoulder -49.212459 -59.446772 -14.234804
RightArm 105.827661 40.995180 144.828218
RightForeArm 76.524735 -0.000000 132.349003
RightHand 10.822799 -0.000000 3.261661
RightHandThumb1 -24.326973 -0.000000 -32.862282
LeftUpLeg -16.818739 3.930956 -0.877871
LeftLeg -1.703279 -0.000000 0.000000
LeftFoot -4.713686 -2.547925 -1.854599
LeftToeBase 3.547506 -0.000000 -0.000000
RightUpLeg -16.623901 -9.313234 3.015184
RightLeg -2.378487 -0.000000 0.000000
RightFoot -6.956585 -0.667669 12.579150
RightToeBase 15.696409 -0.000000 -0.000000
1187
root 0.758898 32.645386 -5.524920 24.223388 1.850597 -0.147461
Spine -27.818714 -11.872076 7.562654
Head 29.123791 28.336898 17.371789
LeftShoulder -21.192873 24.172016 54.225757
LeftArm 207.421091 -31.258346 -120.192618
LeftForeArm -14.308960 -0.000000 124.941310
LeftHand -7.301981 -0.000000 -26.337482
LeftHandThumb1 -26.253704 0.000000 33.147579
RightShoulder -49.205797 -59.498349 -14.235119
RightArm 105.894765 40.984536 144.879891
RightForeArm 76.638003 -0.000000 132.374583
RightHand 10.780872 0.000000 3.139243
RightHandThumb1 -24.326973 -0.000000 -32.862282
LeftUpLeg -16.809257 3.949596 -0.877164
LeftLeg -1.698435 -0.000000 0.000000
LeftFoot -4.708778 -2.558672 -1.835966
LeftToeBase 3.532492 -0.000000 -0.000000
RightUpLeg -16.611512 -9.312861 3.017321
RightLeg -2.378921 -0.000000 0.000000
RightFoot -6.923101 -0.642014 12.664246
RightToeBase 15.558059 -0.000000 -0.000000
1188
root 0.753487 32.645993 -5.525957 24.209835 1.843691 -0.162122
Spine -27.804547 -11.854097 7.537639
Head 29.132774 28.321640 17.365289
LeftShoulder -21.187501 24.173509 54.223083
LeftArm 207.408494 -31.247803 -120.186647
LeftForeArm -14.404776 0.000000 124.911713
LeftHand -7.218758 -0.000000 -26.634279
LeftHandThumb1 -26.253704 0.000000 33.147579
RightShoulder -49.245168 -59.540421 -14.178314
RightArm 105.981302 40.960345 144.920078
RightForeArm 76.640747 -0.000000 132.352704
RightHand 10.806978 0.000000 3.219246
RightHandThumb1 -24.326973 -0.000000 -32.862282
LeftUpLeg -16.800309 3.961159 -0.854832
LeftLeg -1.690915 -0.000000 0.000000
LeftFoot -4.721503 -2.570036 -1.880999
LeftToeBase 3.588750 -0.000000 -0.000000
RightUpLeg -16.606397 -9.319465 3.039839
RightLeg -2.367156 -0.000000 0.000000
RightFoot -6.943622 -0.631045 12.571435
RightToeBase 15.711277 -0.000000 -0.000000
